            <svg xmlns="http://www.w3.org/2000/svg" viewBox="0 0 1091.2 168.4" fill="currentColor"
                class="text-gray-900 max-h-12 w-full">
                <path
                    d="M262.2,159.9c-2.2-.5-3.4-.8-3.5-9.2h0c-.6-30.7-.7-65-.8-98.1-.1-17.2-.1-33.4-.2-49.2V1.1l-2.3.4A346.9,346.9,0,0,1,200.2,5l-.1,4c21.5.7,22.8,3.1,23.5,22.1,0,26.1,0,80.5-.8,121.2-.1,6.9-1.1,7.5-1.5,7.7l-4.8,2.8.2-3c-3.7-.5-12.3-1.8-12.3-27.3,0-13.5,0-33.6.1-53.1,0-18.4.1-36.3.1-47.7V29.4l-2.2.3a353.05,353.05,0,0,1-41.1,2.7l-.1,4c6.8.5,9.4,2.8,9.4,24.9,0,3.5,0,11.3-.1,20.8-.1,15.5-.1,34.8-.1,48.8v6.3c-3.5,2.9-8.7,7-10.6,7-4.5,0-11.2-1.6-17.7-9.4-2.9-3.3-3.9-11.5-3.9-18,0-3.8.2-12.2.5-22.7.4-18.1,1.1-42.9,1.1-62.4V29.4l-2.2.3a353.05,353.05,0,0,1-41.1,2.7l-.1,4c7,.5,9.4,2,9.4,27.3,0,8.1-.4,22-.8,35.4-.1,5.1-.3,10.2-.4,15C81,138.6,76,139.8,69.2,139.8a37.27,37.27,0,0,1-20.1-4.9c-13-7.5-17.3-15.5-17.3-48.4-.2-14.7-.2-23.6.8-30.8a7.41,7.41,0,0,1,2.1-.1c12.2,0,23.4,8.9,33.6,18.5l1.3,1.2L98.3,49.8l-1.5-1.5C85.7,36.8,71.4,29.1,61.2,29.1S41.1,39,31.6,48.6l-2.8,2.8c-9.7,9.7-13.8,14-19,20.3C2.7,80.5,0,85.8,0,105.8c0,25.4,3.1,40.5,19.9,52.1a45.6,45.6,0,0,0,26.2,7.9,35.61,35.61,0,0,0,20-6.4c6.3-4.4,15.4-13.6,38.1-38.6-.1,5.8-.2,9.9-.2,13.1,0,17.1,14.7,32.6,30.8,32.6,5.1,0,9.5-2.4,15-6.3a208.85,208.85,0,0,0,20.6-17c.3,10.9,1.2,16.7,5.4,20.2l.6.5H279.1Z">
                </path>
                <path
                    d="M511.8,132.5c0-8,.4-21.8.8-35s.8-27,.8-35.1c0-17.4-14.1-32.6-30.3-32.6-5.1,0-9.5,2.4-14.9,6.2-7.9,5.5-16.1,13.1-20.6,17.4-3.8-13.3-16.1-23.6-28.9-23.6-5.1,0-9.5,2.4-15,6.3a193.25,193.25,0,0,0-20.2,17V29.5l-2.3.3c-6.4.9-22,2.3-34.6,2.6-12-.1-22.9-.3-34.1-.1V19c0-.8,0-2.8-1.6-3.6s-3.3.2-4.2.8l-.1.1-43.2,38-.1.1c-1.5,1.5-1.5,2.8-1.1,3.6.5,1.2,1.7,1.8,3.5,1.8H279l-.7,79.7c0,6.4,2.3,11.5,7.5,16.3,6.6,6.1,18,12.1,21.8,12.1h0a14.39,14.39,0,0,0,5.4-1.4c5.7-3.1,21.5-17.6,35.7-31.6-.1,5.6-.2,11.4-.3,17.5-.1,6.9-1.1,7.5-1.5,7.7l-6.5,3.7h64.1l-16.6-3.9c-2.2-.5-3.4-.8-3.5-9.2-.6-30.3-1-64.4-1-91.6h0c3.7-3.2,8.3-7.1,10.3-7.1,6.2,0,11.9,3.2,17.2,9.4,2.9,3.3,3.9,11.5,3.9,18,0,5.7-.5,18.7-.9,30.1-.3,9.8-.7,18.3-.7,21.5,0,20.6.4,27.6,2.6,31.7l.6,1h42.1l-5.2-3.7c-3.8-2.7-6-12.5-6-27.6,0-8,.4-21.8.8-35s.8-27,.8-35.1a25.61,25.61,0,0,0-.3-3.9c3.6-3,7.8-6.5,9.6-6.5,6.2,0,11.9,3.2,17.2,9.4,2.9,3.3,3.9,11.5,3.9,18,0,5.7-.5,18.7-.9,30.1-.3,9.8-.6,18.3-.6,21.5,0,19.7.2,27.9,5.4,32.3l.6.5h40.1l.3-4C518.4,159,511.8,155.1,511.8,132.5ZM322.6,59.8h.7l23.6-19.7c1.8,3.3,2.5,9.5,2.5,21.3,0,29.2-.2,52.6-.4,67.4-12,11.2-14.6,13-16.2,13-5.7,0-17-7.2-18.7-9.6-1.3-2.2-1.5-23.2-1.5-72.5C316.8,59.8,320.2,59.8,322.6,59.8Z">
                </path>
                <path
                    d="M799.4,132.5c0-8,.4-21.8.8-35s.8-27,.8-35.1c0-17.4-14.1-32.6-30.3-32.6-5.1,0-9.5,2.4-15,6.3a209.32,209.32,0,0,0-21.1,17.6c-.1-17.2-.1-34-.1-50.3V1l-2.3.4c-5.8,1-23.5,3.9-54.2,3.7l-.1,4c21.5.7,22.8,3.1,23.5,22.1v1.3c-12.8-.2-24.9-.3-37.2-.2V19c0-.8,0-2.8-1.6-3.6s-3.3.2-4.2.8l-.1.1L616.5,53c-7.4-12.2-23.2-22.1-35.7-22.1-7.5,0-20.3,11.2-29.7,20.6-10.2,10.2-13.9,14.3-19.2,20.9-8,10.1-10,14.6-10,32.9,0,27.5,6.7,43.3,22.4,52.9a58.73,58.73,0,0,0,28.1,7.8,35.61,35.61,0,0,0,20-6.4c6.2-4.3,15.3-13.5,37.9-38.4l-.2,18.4c0,6.4,2.3,11.5,7.5,16.3,6.6,6.1,18,12.1,21.8,12.1h0a14.39,14.39,0,0,0,5.4-1.4c5.2-2.9,19.7-15.7,36-31.9-.1,6.6-.2,12.5-.3,17.8-.1,7-1.1,7.5-1.5,7.7l-6.6,3.7h63.1L738.9,160c-2.2-.5-3.3-.8-3.5-9.2-.6-31.9-.8-62.6-.8-91.2,3.6-3.1,9.1-7.5,11.1-7.5,3.8,0,11.2,1.2,18,9.4,2.9,3.3,3.9,11.5,3.9,18,0,5.7-.5,18.7-.9,30.1-.3,9.8-.7,18.3-.7,21.5,0,19.7.2,27.9,5.4,32.3l.6.5h39.3l.3-4C805.9,159,799.4,155.2,799.4,132.5ZM701.3,37.8c0,22.5,0,58.2-.4,90.7-12.3,11.5-14.9,13.3-16.6,13.3-5.7,0-17-7.2-18.7-9.5-1.3-2.2-1.5-23.2-1.5-72.5,4.3.1,7.7.1,10.1.1h.7ZM557.2,57.1c13.5,0,23.1,11,30,21.2l-31.8,28.6c-.9-6.1-1.3-14.1-1.3-25.7,0-10,.1-18.2,1-24.1h2.1Zm-1,54.8,60.7-52.2h13.8l-.4,54.8c-23,24.1-28,25.3-34.6,25.3a48.31,48.31,0,0,1-16.9-3.7C565.4,130.3,559.2,125.6,556.2,111.9Z">
                </path>
                <path
                    d="M882.2,29.8c-21.3,0-30.7,9.5-42.6,21.6-5.9,5.9-14,14-18.5,20.1-8.6,11.9-11.8,23.4-11.8,42.4,0,13.5,3.6,25.2,10.7,34.8,8.4,11.5,20.3,17.1,36.3,17.1,13.2,0,22.4-3.8,30.9-12.6l3.5-3.8a84.19,84.19,0,0,1,9-9.1l1.4-1.2c5.2-4.4,12.2-10.5,15.6-15,9.2-12.7,11-24.6,11-42.2,0-14.7-3.4-26.7-10-35.7C909.1,34.7,898.5,29.8,882.2,29.8Zm-6.5,110.5c-12,0-19.6-4-25.4-13.3-5.9-9.7-8.5-21.2-8.5-38.5,0-10.8,1.6-20.9,4.1-32.6a50.64,50.64,0,0,1,15-1.9c14.1,0,21.9,3.3,26.9,11.3,5.6,9.1,6.6,20.5,6.6,38.5a183.15,183.15,0,0,1-3.7,34.6A54.64,54.64,0,0,1,875.7,140.3Z">
                </path>
                <path
                    d="M1028.8,132.5V113.3c-.1-36.7-.2-105,.8-110.7l.5-2.7-2.7.3a353.05,353.05,0,0,1-41.1,2.7l-.1,4c6.8.5,9.2,2.7,9.4,24.9v.3c-6.6,3.6-21,11.7-32.6,21-22.8,18.5-33,32.5-33,67,0,28.3,13.1,48.1,31.9,48.1,7.2,0,12.1-1.7,18.2-6.3,5.5-4.2,10.8-8.7,15.9-13.4.5,7.1,1.8,11.8,5.2,14.7l.6.5h39.1l.3-4C1037.4,159.3,1028.8,158,1028.8,132.5Zm-44-76.7h11v87c-3.9,3.1-5.3,3.3-5.6,3.3-18.4,0-27.8-15-27.8-44.6,0-23.2,4-39.6,5.5-44.7A122.48,122.48,0,0,1,984.8,55.8Z">
                </path>
                <path
                    d="M1089.5,14.6a21.73,21.73,0,0,0-4.8-7.1,23.41,23.41,0,0,0-7.1-4.8,21.11,21.11,0,0,0-8.7-1.7,22.86,22.86,0,0,0-8.7,1.7,21.73,21.73,0,0,0-7.1,4.8,23.41,23.41,0,0,0-4.8,7.1,21.11,21.11,0,0,0-1.7,8.7,22.86,22.86,0,0,0,1.7,8.7,21.73,21.73,0,0,0,4.8,7.1,23.41,23.41,0,0,0,7.1,4.8,21.11,21.11,0,0,0,8.7,1.7,22.86,22.86,0,0,0,8.7-1.7,21.73,21.73,0,0,0,7.1-4.8,23.41,23.41,0,0,0,4.8-7.1,21.11,21.11,0,0,0,1.7-8.7A22.86,22.86,0,0,0,1089.5,14.6Zm-6.4,16.9a15.91,15.91,0,0,1-5.9,5.9,15.62,15.62,0,0,1-8.3,2.2,15.87,15.87,0,0,1-8.3-2.2,17.52,17.52,0,0,1-5.9-5.9,15.62,15.62,0,0,1-2.2-8.3,15.87,15.87,0,0,1,2.2-8.3,16.67,16.67,0,0,1,5.9-5.9,15.52,15.52,0,0,1,8.2-2.2,15.87,15.87,0,0,1,8.3,2.2,16.67,16.67,0,0,1,5.9,5.9,16.31,16.31,0,0,1,2.2,8.3A14.7,14.7,0,0,1,1083.1,31.5Z">
                </path>
                <path
                    d="M1077.1,23.3a6.41,6.41,0,0,0,1-3.7,6.41,6.41,0,0,0-1-3.7,5.82,5.82,0,0,0-2.6-2.3,8.63,8.63,0,0,0-3.6-.8h-10V33.3h5.3V26.4h3.4l3.2,6.9h5.8l-3.9-7.9A6.11,6.11,0,0,0,1077.1,23.3Zm-10.9-6.6h3.4a2.88,2.88,0,0,1,2,.7,2.49,2.49,0,0,1,.8,2.2,2.75,2.75,0,0,1-2.8,3h-3.3V16.7Z">
                </path>
            </svg>